<svg width="327" height="32" viewBox="0 0 327 32" fill="none" xmlns="http://www.w3.org/2000/svg">
<g clip-path="url(#clip0_48_1316)">
<rect x="-1" width="106" height="32" rx="4" fill="#EBF0EE"/>
<path d="M11.8608 20V11.2727H15.1335C15.804 11.2727 16.3665 11.3892 16.821 11.6222C17.2784 11.8551 17.6236 12.1818 17.8565 12.6023C18.0923 13.0199 18.2102 13.5071 18.2102 14.0639C18.2102 14.6236 18.0909 15.1094 17.8523 15.5213C17.6165 15.9304 17.2685 16.2472 16.8082 16.4716C16.348 16.6932 15.7827 16.804 15.1122 16.804H12.7812V15.4915H14.8991C15.2912 15.4915 15.6122 15.4375 15.8622 15.3295C16.1122 15.2187 16.2969 15.0582 16.4162 14.848C16.5384 14.6349 16.5994 14.3736 16.5994 14.0639C16.5994 13.7543 16.5384 13.4901 16.4162 13.2713C16.294 13.0497 16.108 12.8821 15.858 12.7685C15.608 12.652 15.2855 12.5938 14.8906 12.5938H13.4418V20H11.8608ZM16.3693 16.0455L18.5298 20H16.7656L14.6435 16.0455H16.3693ZM24.1292 17.2472V13.4545H25.6718V20H24.1761V18.8366H24.1079C23.9601 19.2031 23.7172 19.5028 23.3792 19.7358C23.0439 19.9687 22.6306 20.0852 22.1391 20.0852C21.7101 20.0852 21.3309 19.9901 21.0013 19.7997C20.6746 19.6065 20.4189 19.3267 20.2343 18.9602C20.0496 18.5909 19.9573 18.1449 19.9573 17.6222V13.4545H21.4999V17.3835C21.4999 17.7983 21.6136 18.1278 21.8408 18.3722C22.0681 18.6165 22.3664 18.7386 22.7357 18.7386C22.963 18.7386 23.1832 18.6832 23.3962 18.5724C23.6093 18.4616 23.784 18.2969 23.9204 18.0781C24.0596 17.8565 24.1292 17.5795 24.1292 17.2472ZM27.6863 20V11.2727H29.2289V14.5369H29.2928C29.3723 14.3778 29.4846 14.2088 29.6294 14.0298C29.7743 13.848 29.9704 13.6932 30.2175 13.5653C30.4647 13.4347 30.78 13.3693 31.1635 13.3693C31.6692 13.3693 32.1252 13.4986 32.5314 13.7571C32.9405 14.0128 33.2644 14.392 33.503 14.8949C33.7445 15.3949 33.8652 16.0085 33.8652 16.7358C33.8652 17.4545 33.7473 18.0653 33.5115 18.5682C33.2758 19.071 32.9547 19.4545 32.5485 19.7188C32.1422 19.983 31.682 20.1151 31.1678 20.1151C30.7928 20.1151 30.4817 20.0526 30.2346 19.9276C29.9874 19.8026 29.7885 19.652 29.638 19.4759C29.4902 19.2969 29.3752 19.1278 29.2928 18.9688H29.2033V20H27.6863ZM29.199 16.7273C29.199 17.1506 29.2587 17.5213 29.378 17.8395C29.5002 18.1577 29.6749 18.4062 29.9022 18.5852C30.1323 18.7614 30.4107 18.8494 30.7374 18.8494C31.0783 18.8494 31.3638 18.7585 31.5939 18.5767C31.824 18.392 31.9973 18.1406 32.1138 17.8224C32.2331 17.5014 32.2928 17.1364 32.2928 16.7273C32.2928 16.321 32.2346 15.9602 32.1181 15.6449C32.0016 15.3295 31.8283 15.0824 31.5982 14.9034C31.3681 14.7244 31.0812 14.6349 30.7374 14.6349C30.4079 14.6349 30.128 14.7216 29.8979 14.8949C29.6678 15.0682 29.4931 15.3111 29.3738 15.6236C29.2573 15.9361 29.199 16.304 29.199 16.7273ZM36.2728 22.4545C36.0626 22.4545 35.868 22.4375 35.689 22.4034C35.5129 22.3722 35.3723 22.3352 35.2671 22.2926L35.6251 21.0909C35.8495 21.1563 36.0498 21.1875 36.226 21.1847C36.4021 21.1818 36.5569 21.1264 36.6904 21.0185C36.8268 20.9134 36.9419 20.7372 37.0356 20.4901L37.1677 20.1364L34.7941 13.4545H36.4305L37.939 18.3977H38.0072L39.52 13.4545H41.1606L38.5399 20.7926C38.4177 21.1392 38.2558 21.4361 38.0541 21.6832C37.8524 21.9332 37.6052 22.1236 37.3126 22.2543C37.0228 22.3878 36.6762 22.4545 36.2728 22.4545ZM48.7798 20.1278C48.1406 20.1278 47.5866 19.9872 47.1178 19.706C46.6491 19.4247 46.2854 19.0312 46.0269 18.5256C45.7712 18.0199 45.6434 17.429 45.6434 16.7528C45.6434 16.0767 45.7712 15.4844 46.0269 14.9759C46.2854 14.4673 46.6491 14.0724 47.1178 13.7912C47.5866 13.5099 48.1406 13.3693 48.7798 13.3693C49.419 13.3693 49.9729 13.5099 50.4417 13.7912C50.9104 14.0724 51.2727 14.4673 51.5283 14.9759C51.7869 15.4844 51.9161 16.0767 51.9161 16.7528C51.9161 17.429 51.7869 18.0199 51.5283 18.5256C51.2727 19.0312 50.9104 19.4247 50.4417 19.706C49.9729 19.9872 49.419 20.1278 48.7798 20.1278ZM48.7883 18.892C49.1349 18.892 49.4246 18.7969 49.6576 18.6065C49.8906 18.4134 50.0638 18.1548 50.1775 17.831C50.294 17.5071 50.3522 17.1463 50.3522 16.7486C50.3522 16.348 50.294 15.9858 50.1775 15.6619C50.0638 15.3352 49.8906 15.0753 49.6576 14.8821C49.4246 14.6889 49.1349 14.5923 48.7883 14.5923C48.4332 14.5923 48.1377 14.6889 47.9019 14.8821C47.669 15.0753 47.4942 15.3352 47.3778 15.6619C47.2641 15.9858 47.2073 16.348 47.2073 16.7486C47.2073 17.1463 47.2641 17.5071 47.3778 17.831C47.4942 18.1548 47.669 18.4134 47.9019 18.6065C48.1377 18.7969 48.4332 18.892 48.7883 18.892ZM55.128 16.1648V20H53.5854V13.4545H55.0599V14.5668H55.1366C55.2871 14.2003 55.5272 13.9091 55.8567 13.6932C56.1891 13.4773 56.5996 13.3693 57.0883 13.3693C57.54 13.3693 57.9334 13.4659 58.2687 13.6591C58.6067 13.8523 58.8681 14.1321 59.0528 14.4986C59.2403 14.8651 59.3326 15.3097 59.3297 15.8324V20H57.7871V16.071C57.7871 15.6335 57.6735 15.2912 57.4462 15.044C57.2218 14.7969 56.9107 14.6733 56.513 14.6733C56.2431 14.6733 56.003 14.733 55.7928 14.8523C55.5854 14.9687 55.4221 15.1378 55.3028 15.3594C55.1863 15.581 55.128 15.8494 55.128 16.1648ZM64.6627 20V11.2727H67.9354C68.6059 11.2727 69.1684 11.3892 69.6229 11.6222C70.0803 11.8551 70.4255 12.1818 70.6584 12.6023C70.8942 13.0199 71.0121 13.5071 71.0121 14.0639C71.0121 14.6236 70.8928 15.1094 70.6541 15.5213C70.4184 15.9304 70.0703 16.2472 69.6101 16.4716C69.1499 16.6932 68.5845 16.804 67.9141 16.804H65.5831V15.4915H67.701C68.0931 15.4915 68.4141 15.4375 68.6641 15.3295C68.9141 15.2187 69.0988 15.0582 69.2181 14.848C69.3402 14.6349 69.4013 14.3736 69.4013 14.0639C69.4013 13.7543 69.3402 13.4901 69.2181 13.2713C69.0959 13.0497 68.9098 12.8821 68.6598 12.7685C68.4098 12.652 68.0874 12.5938 67.6925 12.5938H66.2436V20H64.6627ZM69.1712 16.0455L71.3317 20H69.5675L67.4453 16.0455H69.1712ZM74.6427 20.1321C74.2279 20.1321 73.8543 20.0582 73.522 19.9105C73.1924 19.7599 72.9311 19.5384 72.7379 19.2457C72.5475 18.9531 72.4524 18.5923 72.4524 18.1634C72.4524 17.794 72.5205 17.4886 72.6569 17.2472C72.7933 17.0057 72.9793 16.8125 73.2151 16.6676C73.4509 16.5227 73.7166 16.4134 74.012 16.3395C74.3103 16.2628 74.6186 16.2074 74.9367 16.1733C75.3203 16.1335 75.6313 16.098 75.87 16.0668C76.1086 16.0327 76.2819 15.9815 76.3899 15.9134C76.5007 15.8423 76.5561 15.733 76.5561 15.5852V15.5597C76.5561 15.2386 76.4609 14.9901 76.2705 14.8139C76.0802 14.6378 75.8061 14.5497 75.4481 14.5497C75.0703 14.5497 74.7705 14.6321 74.549 14.7969C74.3302 14.9616 74.1825 15.1562 74.1058 15.3807L72.6654 15.1761C72.7791 14.7784 72.9666 14.446 73.2279 14.179C73.4893 13.9091 73.8089 13.7074 74.1867 13.5739C74.5646 13.4375 74.9822 13.3693 75.4396 13.3693C75.7549 13.3693 76.0688 13.4062 76.3813 13.4801C76.6938 13.554 76.9793 13.6761 77.2379 13.8466C77.4964 14.0142 77.7038 14.2429 77.86 14.5327C78.0191 14.8224 78.0987 15.1847 78.0987 15.6193V20H76.6157V19.1009H76.5646C76.4708 19.2827 76.3387 19.4531 76.1683 19.6122C76.0007 19.7685 75.789 19.8949 75.5333 19.9915C75.2805 20.0852 74.9836 20.1321 74.6427 20.1321ZM75.0433 18.9986C75.3529 18.9986 75.6214 18.9375 75.8487 18.8153C76.0759 18.6903 76.2507 18.5256 76.3728 18.321C76.4978 18.1165 76.5603 17.8935 76.5603 17.652V16.8807C76.512 16.9205 76.4296 16.9574 76.3132 16.9915C76.1995 17.0256 76.0717 17.0554 75.9296 17.081C75.7876 17.1065 75.647 17.1293 75.5078 17.1491C75.3686 17.169 75.2478 17.1861 75.1455 17.2003C74.9154 17.2315 74.7095 17.2827 74.5276 17.3537C74.3458 17.4247 74.2024 17.5241 74.0972 17.652C73.9921 17.777 73.9396 17.9389 73.9396 18.1378C73.9396 18.4219 74.0433 18.6364 74.2507 18.7812C74.458 18.9261 74.7222 18.9986 75.0433 18.9986ZM80.0098 20V13.4545H81.5524V20H80.0098ZM80.7854 12.5256C80.541 12.5256 80.3308 12.4446 80.1547 12.2827C79.9785 12.1179 79.8905 11.9205 79.8905 11.6903C79.8905 11.4574 79.9785 11.2599 80.1547 11.098C80.3308 10.9332 80.541 10.8509 80.7854 10.8509C81.0325 10.8509 81.2428 10.9332 81.416 11.098C81.5922 11.2599 81.6803 11.4574 81.6803 11.6903C81.6803 11.9205 81.5922 12.1179 81.416 12.2827C81.2428 12.4446 81.0325 12.5256 80.7854 12.5256ZM85.0413 11.2727V20H83.4987V11.2727H85.0413ZM92.1609 15.1847L90.7547 15.3381C90.7149 15.196 90.6453 15.0625 90.5459 14.9375C90.4493 14.8125 90.3186 14.7116 90.1538 14.6349C89.989 14.5582 89.7873 14.5199 89.5487 14.5199C89.2277 14.5199 88.9578 14.5895 88.739 14.7287C88.5231 14.8679 88.4166 15.0483 88.4194 15.2699C88.4166 15.4602 88.4862 15.6151 88.6282 15.7344C88.7731 15.8537 89.0118 15.9517 89.3441 16.0284L90.4606 16.267C91.0799 16.4006 91.5402 16.6122 91.8413 16.902C92.1453 17.1918 92.2987 17.571 92.3015 18.0398C92.2987 18.4517 92.178 18.8153 91.9393 19.1307C91.7035 19.4432 91.3754 19.6875 90.9549 19.8636C90.5345 20.0398 90.0515 20.1278 89.5061 20.1278C88.7049 20.1278 88.0601 19.9602 87.5714 19.625C87.0828 19.2869 86.7916 18.8168 86.6978 18.2145L88.2021 18.0696C88.2703 18.3651 88.4152 18.5881 88.6368 18.7386C88.8584 18.8892 89.1467 18.9645 89.5018 18.9645C89.8683 18.9645 90.1623 18.8892 90.3839 18.7386C90.6084 18.5881 90.7206 18.402 90.7206 18.1804C90.7206 17.9929 90.6481 17.8381 90.5032 17.7159C90.3612 17.5937 90.1396 17.5 89.8385 17.4347L88.722 17.2003C88.0941 17.0696 87.6297 16.8494 87.3285 16.5398C87.0274 16.2273 86.8782 15.8324 86.8811 15.3551C86.8782 14.9517 86.9876 14.6023 87.2092 14.3068C87.4336 14.0085 87.7447 13.7784 88.1424 13.6165C88.543 13.4517 89.0047 13.3693 89.5274 13.3693C90.2944 13.3693 90.8981 13.5327 91.3385 13.8594C91.7816 14.1861 92.0558 14.6278 92.1609 15.1847Z" fill="#3A4A42"/>
<rect x="113" width="50" height="32" rx="4" fill="#EBF0EE"/>
<path d="M133.331 14.2173H131.737C131.692 13.956 131.608 13.7244 131.486 13.5227C131.364 13.3182 131.212 13.1449 131.03 13.0028C130.848 12.8608 130.641 12.7543 130.408 12.6832C130.178 12.6094 129.929 12.5724 129.662 12.5724C129.188 12.5724 128.767 12.6918 128.401 12.9304C128.034 13.1662 127.747 13.5128 127.54 13.9702C127.332 14.4247 127.229 14.9801 127.229 15.6364C127.229 16.304 127.332 16.8665 127.54 17.3239C127.75 17.7784 128.037 18.1222 128.401 18.3551C128.767 18.5852 129.186 18.7003 129.658 18.7003C129.919 18.7003 130.163 18.6662 130.391 18.598C130.621 18.527 130.827 18.4233 131.009 18.2869C131.193 18.1506 131.348 17.983 131.473 17.7841C131.601 17.5852 131.689 17.358 131.737 17.1023L133.331 17.1108C133.271 17.5256 133.142 17.9148 132.943 18.2784C132.747 18.642 132.49 18.9631 132.172 19.2415C131.854 19.517 131.482 19.733 131.055 19.8892C130.629 20.0426 130.156 20.1193 129.636 20.1193C128.869 20.1193 128.185 19.9418 127.582 19.5866C126.98 19.2315 126.506 18.7188 126.159 18.0483C125.813 17.3778 125.639 16.5739 125.639 15.6364C125.639 14.696 125.814 13.892 126.163 13.2244C126.513 12.554 126.989 12.0412 127.591 11.6861C128.193 11.331 128.875 11.1534 129.636 11.1534C130.122 11.1534 130.574 11.2216 130.991 11.358C131.409 11.4943 131.781 11.6946 132.108 11.9588C132.435 12.2202 132.703 12.5412 132.913 12.9219C133.126 13.2997 133.266 13.7315 133.331 14.2173ZM139.882 13.6719C139.842 13.2997 139.674 13.0099 139.379 12.8026C139.086 12.5952 138.706 12.4915 138.237 12.4915C137.907 12.4915 137.625 12.5412 137.389 12.6406C137.153 12.7401 136.973 12.875 136.848 13.0455C136.723 13.2159 136.659 13.4105 136.656 13.6293C136.656 13.8111 136.697 13.9687 136.779 14.1023C136.865 14.2358 136.98 14.3494 137.125 14.4432C137.269 14.5341 137.43 14.6108 137.606 14.6733C137.782 14.7358 137.96 14.7884 138.139 14.831L138.957 15.0355C139.286 15.1122 139.603 15.2159 139.907 15.3466C140.214 15.4773 140.488 15.642 140.73 15.8409C140.974 16.0398 141.167 16.2798 141.309 16.5611C141.451 16.8423 141.522 17.1719 141.522 17.5497C141.522 18.0611 141.392 18.5114 141.13 18.9006C140.869 19.2869 140.491 19.5895 139.997 19.8082C139.505 20.0241 138.91 20.1321 138.211 20.1321C137.532 20.1321 136.943 20.027 136.443 19.8168C135.946 19.6065 135.556 19.2997 135.275 18.8963C134.997 18.4929 134.846 18.0014 134.823 17.4219H136.379C136.402 17.7259 136.495 17.9787 136.66 18.1804C136.825 18.3821 137.039 18.5327 137.304 18.6321C137.571 18.7315 137.869 18.7812 138.198 18.7812C138.542 18.7812 138.843 18.7301 139.102 18.6278C139.363 18.5227 139.568 18.3778 139.715 18.1932C139.863 18.0057 139.938 17.7869 139.941 17.5369C139.938 17.3097 139.872 17.1222 139.741 16.9744C139.61 16.8239 139.427 16.6989 139.191 16.5994C138.958 16.4972 138.686 16.4062 138.373 16.3267L137.38 16.071C136.661 15.8864 136.093 15.6065 135.676 15.2315C135.261 14.8537 135.054 14.3523 135.054 13.7273C135.054 13.2131 135.193 12.7628 135.471 12.3764C135.752 11.9901 136.135 11.6903 136.617 11.4773C137.1 11.2614 137.647 11.1534 138.258 11.1534C138.877 11.1534 139.42 11.2614 139.886 11.4773C140.355 11.6903 140.723 11.9872 140.99 12.3679C141.257 12.7457 141.394 13.1804 141.403 13.6719H139.882ZM148.035 13.6719C147.995 13.2997 147.827 13.0099 147.532 12.8026C147.239 12.5952 146.858 12.4915 146.39 12.4915C146.06 12.4915 145.778 12.5412 145.542 12.6406C145.306 12.7401 145.126 12.875 145.001 13.0455C144.876 13.2159 144.812 13.4105 144.809 13.6293C144.809 13.8111 144.85 13.9687 144.932 14.1023C145.018 14.2358 145.133 14.3494 145.278 14.4432C145.422 14.5341 145.583 14.6108 145.759 14.6733C145.935 14.7358 146.113 14.7884 146.292 14.831L147.11 15.0355C147.439 15.1122 147.756 15.2159 148.06 15.3466C148.367 15.4773 148.641 15.642 148.883 15.8409C149.127 16.0398 149.32 16.2798 149.462 16.5611C149.604 16.8423 149.675 17.1719 149.675 17.5497C149.675 18.0611 149.545 18.5114 149.283 18.9006C149.022 19.2869 148.644 19.5895 148.15 19.8082C147.658 20.0241 147.063 20.1321 146.364 20.1321C145.685 20.1321 145.096 20.027 144.596 19.8168C144.099 19.6065 143.709 19.2997 143.428 18.8963C143.15 18.4929 142.999 18.0014 142.976 17.4219H144.532C144.555 17.7259 144.648 17.9787 144.813 18.1804C144.978 18.3821 145.192 18.5327 145.457 18.6321C145.724 18.7315 146.022 18.7812 146.351 18.7812C146.695 18.7812 146.996 18.7301 147.255 18.6278C147.516 18.5227 147.721 18.3778 147.868 18.1932C148.016 18.0057 148.091 17.7869 148.094 17.5369C148.091 17.3097 148.025 17.1222 147.894 16.9744C147.763 16.8239 147.58 16.6989 147.344 16.5994C147.111 16.4972 146.839 16.4062 146.526 16.3267L145.533 16.071C144.814 15.8864 144.246 15.6065 143.829 15.2315C143.414 14.8537 143.207 14.3523 143.207 13.7273C143.207 13.2131 143.346 12.7628 143.624 12.3764C143.905 11.9901 144.287 11.6903 144.77 11.4773C145.253 11.2614 145.8 11.1534 146.411 11.1534C147.03 11.1534 147.573 11.2614 148.039 11.4773C148.508 11.6903 148.876 11.9872 149.143 12.3679C149.41 12.7457 149.547 13.1804 149.556 13.6719H148.035Z" fill="#3A4A42"/>
<rect x="171" width="89" height="32" rx="4" fill="#EBF0EE"/>
<path d="M187.304 11.2727H188.872V17.4091C188.869 17.9716 188.75 18.456 188.514 18.8622C188.278 19.2656 187.949 19.5767 187.526 19.7955C187.105 20.0114 186.615 20.1193 186.055 20.1193C185.544 20.1193 185.084 20.0284 184.675 19.8466C184.268 19.6619 183.946 19.3892 183.707 19.0284C183.469 18.6676 183.349 18.2187 183.349 17.6818H184.922C184.925 17.9176 184.976 18.1207 185.075 18.2912C185.178 18.4616 185.318 18.5923 185.497 18.6832C185.676 18.7741 185.882 18.8196 186.115 18.8196C186.368 18.8196 186.582 18.767 186.759 18.6619C186.935 18.554 187.068 18.3949 187.159 18.1847C187.253 17.9744 187.301 17.7159 187.304 17.4091V11.2727ZM192.763 20.1321C192.348 20.1321 191.974 20.0582 191.642 19.9105C191.312 19.7599 191.051 19.5384 190.858 19.2457C190.668 18.9531 190.572 18.5923 190.572 18.1634C190.572 17.794 190.641 17.4886 190.777 17.2472C190.913 17.0057 191.099 16.8125 191.335 16.6676C191.571 16.5227 191.837 16.4134 192.132 16.3395C192.43 16.2628 192.739 16.2074 193.057 16.1733C193.44 16.1335 193.751 16.098 193.99 16.0668C194.229 16.0327 194.402 15.9815 194.51 15.9134C194.621 15.8423 194.676 15.733 194.676 15.5852V15.5597C194.676 15.2386 194.581 14.9901 194.391 14.8139C194.2 14.6378 193.926 14.5497 193.568 14.5497C193.19 14.5497 192.891 14.6321 192.669 14.7969C192.45 14.9616 192.302 15.1562 192.226 15.3807L190.785 15.1761C190.899 14.7784 191.087 14.446 191.348 14.179C191.609 13.9091 191.929 13.7074 192.307 13.5739C192.685 13.4375 193.102 13.3693 193.56 13.3693C193.875 13.3693 194.189 13.4062 194.501 13.4801C194.814 13.554 195.099 13.6761 195.358 13.8466C195.616 14.0142 195.824 14.2429 195.98 14.5327C196.139 14.8224 196.219 15.1847 196.219 15.6193V20H194.736V19.1009H194.685C194.591 19.2827 194.459 19.4531 194.288 19.6122C194.121 19.7685 193.909 19.8949 193.653 19.9915C193.4 20.0852 193.104 20.1321 192.763 20.1321ZM193.163 18.9986C193.473 18.9986 193.741 18.9375 193.969 18.8153C194.196 18.6903 194.371 18.5256 194.493 18.321C194.618 18.1165 194.68 17.8935 194.68 17.652V16.8807C194.632 16.9205 194.55 16.9574 194.433 16.9915C194.32 17.0256 194.192 17.0554 194.05 17.081C193.908 17.1065 193.767 17.1293 193.628 17.1491C193.489 17.169 193.368 17.1861 193.266 17.2003C193.035 17.2315 192.829 17.2827 192.648 17.3537C192.466 17.4247 192.322 17.5241 192.217 17.652C192.112 17.777 192.06 17.9389 192.06 18.1378C192.06 18.4219 192.163 18.6364 192.371 18.7812C192.578 18.9261 192.842 18.9986 193.163 18.9986ZM203.742 13.4545L201.411 20H199.707L197.376 13.4545H199.02L200.525 18.3168H200.593L202.101 13.4545H203.742ZM206.866 20.1321C206.451 20.1321 206.077 20.0582 205.745 19.9105C205.415 19.7599 205.154 19.5384 204.961 19.2457C204.77 18.9531 204.675 18.5923 204.675 18.1634C204.675 17.794 204.743 17.4886 204.88 17.2472C205.016 17.0057 205.202 16.8125 205.438 16.6676C205.674 16.5227 205.939 16.4134 206.235 16.3395C206.533 16.2628 206.841 16.2074 207.16 16.1733C207.543 16.1335 207.854 16.098 208.093 16.0668C208.331 16.0327 208.505 15.9815 208.613 15.9134C208.723 15.8423 208.779 15.733 208.779 15.5852V15.5597C208.779 15.2386 208.684 14.9901 208.493 14.8139C208.303 14.6378 208.029 14.5497 207.671 14.5497C207.293 14.5497 206.993 14.6321 206.772 14.7969C206.553 14.9616 206.405 15.1562 206.329 15.3807L204.888 15.1761C205.002 14.7784 205.189 14.446 205.451 14.179C205.712 13.9091 206.032 13.7074 206.41 13.5739C206.787 13.4375 207.205 13.3693 207.662 13.3693C207.978 13.3693 208.292 13.4062 208.604 13.4801C208.917 13.554 209.202 13.6761 209.461 13.8466C209.719 14.0142 209.927 14.2429 210.083 14.5327C210.242 14.8224 210.321 15.1847 210.321 15.6193V20H208.839V19.1009H208.787C208.694 19.2827 208.562 19.4531 208.391 19.6122C208.223 19.7685 208.012 19.8949 207.756 19.9915C207.503 20.0852 207.206 20.1321 206.866 20.1321ZM207.266 18.9986C207.576 18.9986 207.844 18.9375 208.071 18.8153C208.299 18.6903 208.473 18.5256 208.596 18.321C208.721 18.1165 208.783 17.8935 208.783 17.652V16.8807C208.735 16.9205 208.652 16.9574 208.536 16.9915C208.422 17.0256 208.294 17.0554 208.152 17.081C208.01 17.1065 207.87 17.1293 207.731 17.1491C207.591 17.169 207.471 17.1861 207.368 17.2003C207.138 17.2315 206.932 17.2827 206.75 17.3537C206.569 17.4247 206.425 17.5241 206.32 17.652C206.215 17.777 206.162 17.9389 206.162 18.1378C206.162 18.4219 206.266 18.6364 206.473 18.7812C206.681 18.9261 206.945 18.9986 207.266 18.9986ZM217.044 13.6719C217.004 13.2997 216.836 13.0099 216.541 12.8026C216.248 12.5952 215.868 12.4915 215.399 12.4915C215.069 12.4915 214.787 12.5412 214.551 12.6406C214.315 12.7401 214.135 12.875 214.01 13.0455C213.885 13.2159 213.821 13.4105 213.818 13.6293C213.818 13.8111 213.859 13.9687 213.941 14.1023C214.027 14.2358 214.142 14.3494 214.287 14.4432C214.431 14.5341 214.592 14.6108 214.768 14.6733C214.944 14.7358 215.122 14.7884 215.301 14.831L216.119 15.0355C216.449 15.1122 216.765 15.2159 217.069 15.3466C217.376 15.4773 217.65 15.642 217.892 15.8409C218.136 16.0398 218.329 16.2798 218.471 16.5611C218.613 16.8423 218.684 17.1719 218.684 17.5497C218.684 18.0611 218.554 18.5114 218.292 18.9006C218.031 19.2869 217.653 19.5895 217.159 19.8082C216.667 20.0241 216.072 20.1321 215.373 20.1321C214.694 20.1321 214.105 20.027 213.605 19.8168C213.108 19.6065 212.718 19.2997 212.437 18.8963C212.159 18.4929 212.008 18.0014 211.985 17.4219H213.541C213.564 17.7259 213.657 17.9787 213.822 18.1804C213.987 18.3821 214.201 18.5327 214.466 18.6321C214.733 18.7315 215.031 18.7812 215.36 18.7812C215.704 18.7812 216.005 18.7301 216.264 18.6278C216.525 18.5227 216.73 18.3778 216.878 18.1932C217.025 18.0057 217.101 17.7869 217.103 17.5369C217.101 17.3097 217.034 17.1222 216.903 16.9744C216.772 16.8239 216.589 16.6989 216.353 16.5994C216.12 16.4972 215.848 16.4062 215.535 16.3267L214.542 16.071C213.824 15.8864 213.255 15.6065 212.838 15.2315C212.423 14.8537 212.216 14.3523 212.216 13.7273C212.216 13.2131 212.355 12.7628 212.633 12.3764C212.914 11.9901 213.297 11.6903 213.779 11.4773C214.262 11.2614 214.809 11.1534 215.42 11.1534C216.039 11.1534 216.582 11.2614 217.048 11.4773C217.517 11.6903 217.885 11.9872 218.152 12.3679C218.419 12.7457 218.556 13.1804 218.565 13.6719H217.044ZM223.241 20.1278C222.587 20.1278 222.026 19.9844 221.557 19.6974C221.092 19.4105 220.732 19.0142 220.479 18.5085C220.229 18 220.104 17.4148 220.104 16.7528C220.104 16.0881 220.232 15.5014 220.488 14.9929C220.744 14.4815 221.104 14.0838 221.57 13.7997C222.039 13.5128 222.593 13.3693 223.232 13.3693C223.763 13.3693 224.234 13.4673 224.643 13.6634C225.055 13.8565 225.383 14.1307 225.627 14.4858C225.871 14.8381 226.011 15.25 226.045 15.7216H224.57C224.511 15.4062 224.369 15.1435 224.144 14.9332C223.923 14.7202 223.626 14.6136 223.253 14.6136C222.938 14.6136 222.661 14.6989 222.423 14.8693C222.184 15.0369 221.998 15.2784 221.864 15.5938C221.734 15.9091 221.668 16.2869 221.668 16.7273C221.668 17.1733 221.734 17.5568 221.864 17.8778C221.995 18.196 222.178 18.4418 222.414 18.6151C222.653 18.7855 222.932 18.8707 223.253 18.8707C223.481 18.8707 223.684 18.8281 223.863 18.7429C224.045 18.6548 224.197 18.5284 224.319 18.3636C224.441 18.1989 224.525 17.9986 224.57 17.7628H226.045C226.008 18.2259 225.871 18.6364 225.636 18.9943C225.4 19.3494 225.079 19.6278 224.673 19.8295C224.266 20.0284 223.789 20.1278 223.241 20.1278ZM227.671 20V13.4545H229.167V14.5455H229.235C229.355 14.1676 229.559 13.8764 229.849 13.6719C230.142 13.4645 230.475 13.3608 230.85 13.3608C230.936 13.3608 231.031 13.3651 231.136 13.3736C231.244 13.3793 231.333 13.3892 231.404 13.4034V14.8224C231.339 14.7997 231.235 14.7798 231.093 14.7628C230.954 14.7429 230.819 14.733 230.688 14.733C230.407 14.733 230.154 14.794 229.93 14.9162C229.708 15.0355 229.534 15.2017 229.406 15.4148C229.278 15.6278 229.214 15.8736 229.214 16.152V20H227.671ZM232.789 20V13.4545H234.332V20H232.789ZM233.565 12.5256C233.32 12.5256 233.11 12.4446 232.934 12.2827C232.758 12.1179 232.67 11.9205 232.67 11.6903C232.67 11.4574 232.758 11.2599 232.934 11.098C233.11 10.9332 233.32 10.8509 233.565 10.8509C233.812 10.8509 234.022 10.9332 234.195 11.098C234.372 11.2599 234.46 11.4574 234.46 11.6903C234.46 11.9205 234.372 12.1179 234.195 12.2827C234.022 12.4446 233.812 12.5256 233.565 12.5256ZM236.278 22.4545V13.4545H237.795V14.5369H237.885C237.964 14.3778 238.076 14.2088 238.221 14.0298C238.366 13.848 238.562 13.6932 238.809 13.5653C239.056 13.4347 239.372 13.3693 239.755 13.3693C240.261 13.3693 240.717 13.4986 241.123 13.7571C241.532 14.0128 241.856 14.392 242.095 14.8949C242.336 15.3949 242.457 16.0085 242.457 16.7358C242.457 17.4545 242.339 18.0653 242.103 18.5682C241.868 19.071 241.547 19.4545 241.14 19.7188C240.734 19.983 240.274 20.1151 239.76 20.1151C239.385 20.1151 239.074 20.0526 238.826 19.9276C238.579 19.8026 238.38 19.652 238.23 19.4759C238.082 19.2969 237.967 19.1278 237.885 18.9688H237.821V22.4545H236.278ZM237.791 16.7273C237.791 17.1506 237.851 17.5213 237.97 17.8395C238.092 18.1577 238.267 18.4062 238.494 18.5852C238.724 18.7614 239.003 18.8494 239.329 18.8494C239.67 18.8494 239.956 18.7585 240.186 18.5767C240.416 18.392 240.589 18.1406 240.706 17.8224C240.825 17.5014 240.885 17.1364 240.885 16.7273C240.885 16.321 240.826 15.9602 240.71 15.6449C240.593 15.3295 240.42 15.0824 240.19 14.9034C239.96 14.7244 239.673 14.6349 239.329 14.6349C239 14.6349 238.72 14.7216 238.49 14.8949C238.26 15.0682 238.085 15.3111 237.966 15.6236C237.849 15.9361 237.791 16.304 237.791 16.7273ZM247.407 13.4545V14.6477H243.644V13.4545H247.407ZM244.573 11.8864H246.115V18.0312C246.115 18.2386 246.147 18.3977 246.209 18.5085C246.274 18.6165 246.36 18.6903 246.465 18.7301C246.57 18.7699 246.686 18.7898 246.814 18.7898C246.911 18.7898 246.999 18.7827 247.078 18.7685C247.161 18.7543 247.223 18.7415 247.266 18.7301L247.526 19.9361C247.443 19.9645 247.326 19.9957 247.172 20.0298C247.022 20.0639 246.837 20.0838 246.618 20.0895C246.232 20.1009 245.884 20.0426 245.574 19.9148C245.265 19.7841 245.019 19.5824 244.837 19.3097C244.658 19.0369 244.57 18.696 244.573 18.2869V11.8864Z" fill="#3A4A42"/>
<rect x="268" width="60" height="32" rx="4" fill="#EBF0EE"/>
<path d="M280.861 20V11.2727H282.442V14.9673H286.486V11.2727H288.071V20H286.486V16.2926H282.442V20H280.861ZM289.767 12.598V11.2727H296.73V12.598H294.033V20H292.464V12.598H289.767ZM298.432 11.2727H300.367L302.958 17.5966H303.06L305.651 11.2727H307.586V20H306.069V14.0043H305.988L303.576 19.9744H302.442L300.03 13.9915H299.949V20H298.432V11.2727ZM309.667 20V11.2727H311.248V18.6747H315.092V20H309.667Z" fill="#3A4A42"/>
</g>
<defs>
<clipPath id="clip0_48_1316">
<rect width="329" height="32" fill="white" transform="translate(-1)"/>
</clipPath>
</defs>
</svg>
